<?xml version="1.0" encoding="UTF-8" standalone="no"?>
<svg
   xmlns:dc="http://purl.org/dc/elements/1.1/"
   xmlns:cc="http://creativecommons.org/ns#"
   xmlns:rdf="http://www.w3.org/1999/02/22-rdf-syntax-ns#"
   xmlns:svg="http://www.w3.org/2000/svg"
   xmlns="http://www.w3.org/2000/svg"
   xmlns:sodipodi="http://sodipodi.sourceforge.net/DTD/sodipodi-0.dtd"
   xmlns:inkscape="http://www.inkscape.org/namespaces/inkscape"
   width="793.700787402"
   height="1122.51968504"
   version="1.1"
   id="svg63"
   sodipodi:docname="curate.svg"
   inkscape:version="0.92.4 (5da689c313, 2019-01-14)">
  <metadata
     id="metadata67">
    <rdf:RDF>
      <cc:Work
         rdf:about="">
        <dc:format>image/svg+xml</dc:format>
        <dc:type
           rdf:resource="http://purl.org/dc/dcmitype/StillImage" />
        <dc:title />
      </cc:Work>
    </rdf:RDF>
  </metadata>
  <sodipodi:namedview
     pagecolor="#ffffff"
     bordercolor="#666666"
     borderopacity="1"
     objecttolerance="10"
     gridtolerance="10"
     guidetolerance="10"
     inkscape:pageopacity="0"
     inkscape:pageshadow="2"
     inkscape:window-width="1920"
     inkscape:window-height="1009"
     id="namedview65"
     showgrid="false"
     inkscape:snap-page="true"
     inkscape:snap-grids="false"
     inkscape:zoom="0.5"
     inkscape:cx="169.86865"
     inkscape:cy="267.29697"
     inkscape:window-x="-8"
     inkscape:window-y="-8"
     inkscape:window-maximized="1"
     inkscape:current-layer="g61"
     inkscape:snap-others="false" />
   <defs
     id="defs51">
    <marker
       id="DistanceX"
       orient="auto"
       refX="0.0"
       refY="0.0"
       style="overflow:visible">
      <path
         d="M 3,-3 L -3,3 M 0,-5 L  0,5"
         style="stroke:#000000; stroke-width:0.5"
         id="path39" />
    </marker>
    <pattern
       height="8"
       id="Hatch"
       patternUnits="userSpaceOnUse"
       width="8"
       x="0"
       y="0">
      <path
         d="M8 4 l-4,4"
         linecap="square"
         stroke="#000000"
         stroke-width="0.25"
         id="path42" />
      <path
         d="M6 2 l-4,4"
         linecap="square"
         stroke="#000000"
         stroke-width="0.25"
         id="path44" />
      <path
         d="M4 0 l-4,4"
         linecap="square"
         stroke="#000000"
         stroke-width="0.25"
         id="path46" />
    </pattern>
    <symbol
       id="*MODEL_SPACE" />
    <symbol
       id="*PAPER_SPACE" />
  </defs>
  <g
     inkscape:groupmode="layer"
     inkscape:label="0"
     id="g61">
    <path
       d="m 102.61262,710.63724 a 11.296382,11.296382 0 0 0 -8.768887,18.41787 L 279.78727,958.01238 a 37.654642,37.654642 0 0 1 -29.22956,61.39292 H 37.654611 A 37.654642,37.654642 0 0 1 6.1098902,961.18852 L 81.774688,845.10982 a 11.296382,11.296382 0 0 1 18.232272,-0.95286 l 19.94774,24.56222 a 11.296382,11.296382 0 0 1 0.69457,13.29011 l -43.813112,67.21447 a 11.296382,11.296382 0 0 0 9.463425,17.46503 H 195.19561 a 11.296382,11.296382 0 0 0 8.76888,-18.41787 L 18.020963,719.31365 a 37.654642,37.654642 0 0 1 29.229558,-61.3929 H 260.15361 a 37.654642,37.654642 0 0 1 31.54473,58.21677 l -75.6648,116.07868 a 11.296382,11.296382 0 0 1 -18.23227,0.95286 l -19.94774,-24.56221 a 11.296382,11.296382 0 0 1 -0.69457,-13.29012 l 43.81312,-67.21445 a 11.296382,11.296382 0 0 0 -9.46344,-17.46504 z"
       style="fill:#b1a5cc;fill-opacity:1;stroke:none;stroke-width:2;stroke-miterlimit:4;stroke-dasharray:none"
       id="path57"
       inkscape:connector-curvature="0" />
    <path
       d="m 138.52108,1115.6731 a 11.296382,11.296382 0 0 0 20.76607,0 l 28.05414,-65.4597 a 11.296382,11.296382 0 0 0 -10.38303,-15.7462 h -56.10829 a 11.296382,11.296382 0 0 0 -10.38303,15.7462 z"
       style="fill:#b1a5cc;fill-opacity:1;stroke:none;stroke-width:25.50474358"
       id="path59"
       inkscape:connector-curvature="0" />
  </g>
</svg>
