<?xml version="1.0" encoding="UTF-8" standalone="no"?>
<svg
   width="793.700787402"
   height="1122.51968504"
   version="1.1"
   id="svg63"
   sodipodi:docname="curate.svg"
   inkscape:version="1.3 (0e150ed, 2023-07-21)"
   xmlns:inkscape="http://www.inkscape.org/namespaces/inkscape"
   xmlns:sodipodi="http://sodipodi.sourceforge.net/DTD/sodipodi-0.dtd"
   xmlns="http://www.w3.org/2000/svg"
   xmlns:svg="http://www.w3.org/2000/svg"
   xmlns:rdf="http://www.w3.org/1999/02/22-rdf-syntax-ns#"
   xmlns:cc="http://creativecommons.org/ns#"
   xmlns:dc="http://purl.org/dc/elements/1.1/">
  <metadata
     id="metadata67">
    <rdf:RDF>
      <cc:Work
         rdf:about="">
        <dc:format>image/svg+xml</dc:format>
        <dc:type
           rdf:resource="http://purl.org/dc/dcmitype/StillImage" />
        <dc:title />
      </cc:Work>
    </rdf:RDF>
  </metadata>
  <sodipodi:namedview
     pagecolor="#ffffff"
     bordercolor="#666666"
     borderopacity="1"
     objecttolerance="10"
     gridtolerance="10"
     guidetolerance="10"
     inkscape:pageopacity="0"
     inkscape:pageshadow="2"
     inkscape:window-width="1366"
     inkscape:window-height="736"
     id="namedview65"
     showgrid="false"
     inkscape:snap-page="true"
     inkscape:snap-grids="false"
     inkscape:zoom="22.627417"
     inkscape:cx="13.015184"
     inkscape:cy="6.4302523"
     inkscape:window-x="0"
     inkscape:window-y="0"
     inkscape:window-maximized="1"
     inkscape:current-layer="g61"
     inkscape:snap-others="false"
     inkscape:showpageshadow="2"
     inkscape:pagecheckerboard="0"
     inkscape:deskcolor="#d1d1d1" />
  <defs
     id="defs51">
    <marker
       id="DistanceX"
       orient="auto"
       refX="0.0"
       refY="0.0"
       style="overflow:visible">
      <path
         d="M 3,-3 L -3,3 M 0,-5 L  0,5"
         style="stroke:#000000; stroke-width:0.5"
         id="path39" />
    </marker>
    <pattern
       height="8"
       id="Hatch"
       patternUnits="userSpaceOnUse"
       width="8"
       x="0"
       y="0">
      <path
         d="M8 4 l-4,4"
         linecap="square"
         stroke="#000000"
         stroke-width="0.25"
         id="path42" />
      <path
         d="M6 2 l-4,4"
         linecap="square"
         stroke="#000000"
         stroke-width="0.25"
         id="path44" />
      <path
         d="M4 0 l-4,4"
         linecap="square"
         stroke="#000000"
         stroke-width="0.25"
         id="path46" />
    </pattern>
    <symbol
       id="*MODEL_SPACE" />
    <symbol
       id="*PAPER_SPACE" />
  </defs>
  <g
     inkscape:groupmode="layer"
     inkscape:label="0"
     id="g61">
    <path
       d="m 7.8449806,12.405689 c 0.3821252,10e-7 0.5932166,-0.443368 0.3523165,-0.739994 L 0.72645427,2.4666453 C -0.07654273,1.4778932 0.62709427,2.738202e-7 1.9008403,2.738202e-7 H 10.454865 C 11.65613,1.2738202e-6 12.378246,1.3326872 11.722269,2.3390343 L 9.0411659,6.4504188 c -0.1680528,0.25781 -0.5385278,0.27717 -0.7325365,0.03828 L 7.5071687,5.5018368 C 7.3828812,5.3487988 7.3716042,5.1330268 7.4792617,4.9678668 L 8.8806278,2.8197513 C 9.0775333,2.5179203 8.8607858,2.1180412 8.5004061,2.1180412 H 4.1251794 c -0.3821244,-1e-6 -0.5932152,0.4433681 -0.352316,0.7399931 l 7.4708426,9.1990537 c 0.802997,0.988752 0.09936,2.466645 -1.174386,2.466645 H 1.5152963 c -1.20126603,0 -1.92316403,-1.332545 -1.26740503,-2.339035 L 2.9265863,8.0733143 c 0.168053,-0.25781 0.5385285,-0.27717 0.7325372,-0.03828 l 0.80146,0.986861 c 0.124289,0.153038 0.1355671,0.36881 0.02791,0.533971 L 3.0895313,11.703978 c -0.196668,0.301987 0.01984,0.701713 0.3802231,0.701711 z"
       style="fill-opacity:1;stroke:none;stroke-width:2;stroke-miterlimit:4;stroke-dasharray:none"
       id="path57-3-7"
       inkscape:connector-curvature="0"
       sodipodi:nodetypes="ccssccccccsccccscsccccscc" />
    <path
       d="m 5.5654902,18.391583 a 0.45386626,0.45386626 0 0 0 0.8343396,0 L 7.5269896,15.761542 A 0.45386626,0.45386626 0 0 0 7.10982,15.128891 H 4.8555 a 0.45386626,0.45386626 0 0 0 -0.4171696,0.632651 z"
       style="fill-opacity:1;stroke:none;stroke-width:25.5047"
       id="path59"
       inkscape:connector-curvature="0" />
  </g>
</svg>
