<?xml version="1.0" encoding="UTF-8" standalone="no"?>
<!-- Created with Inkscape (http://www.inkscape.org/) -->

<svg
   xmlns:dc="http://purl.org/dc/elements/1.1/"
   xmlns:cc="http://creativecommons.org/ns#"
   xmlns:rdf="http://www.w3.org/1999/02/22-rdf-syntax-ns#"
   xmlns:svg="http://www.w3.org/2000/svg"
   xmlns="http://www.w3.org/2000/svg"
   xmlns:sodipodi="http://sodipodi.sourceforge.net/DTD/sodipodi-0.dtd"
   xmlns:inkscape="http://www.inkscape.org/namespaces/inkscape"
   width="210mm"
   height="297mm"
   viewBox="0 0 210 297"
   version="1.1"
   id="svg886"
   sodipodi:docname="share.svg"
   inkscape:version="0.92.4 (5da689c313, 2019-01-14)">
  <defs
     id="defs880" />
  <sodipodi:namedview
     id="base"
     pagecolor="#ffffff"
     bordercolor="#666666"
     borderopacity="1.0"
     inkscape:pageopacity="0.0"
     inkscape:pageshadow="2"
     inkscape:zoom="1.4"
     inkscape:cx="310.25867"
     inkscape:cy="721.86316"
     inkscape:document-units="mm"
     inkscape:current-layer="layer1"
     showgrid="false"
     inkscape:window-width="1920"
     inkscape:window-height="1009"
     inkscape:window-x="-8"
     inkscape:window-y="-8"
     inkscape:window-maximized="1" />
  <metadata
     id="metadata883">
    <rdf:RDF>
      <cc:Work
         rdf:about="">
        <dc:format>image/svg+xml</dc:format>
        <dc:type
           rdf:resource="http://purl.org/dc/dcmitype/StillImage" />
        <dc:title />
      </cc:Work>
    </rdf:RDF>
  </metadata>
  <g
     inkscape:label="Layer 1"
     inkscape:groupmode="layer"
     id="layer1">
    <g
       aria-label="#"
       transform="matrix(0.26458333,0,0,0.26458333,-19.670043,213.11433)"
       style="font-style:normal;font-weight:normal;font-size:40px;line-height:1.25;font-family:sans-serif;letter-spacing:0px;word-spacing:0px;fill:#000000;fill-opacity:1;stroke:none"
       id="flowRoot1431" />
    <path
       d="m 94.98021,37.177603 c 2.105345,-0.796965 4.528442,-0.356313 6.13971,1.116151 l 50.70422,45.282836 c 2.14098,1.912067 2.20845,5.049638 0.20395,7.085557 l -50.70422,50.431793 c -1.560564,1.58436 -4.028174,2.12655 -6.2062,1.36244 -2.177468,-0.76359 -3.786384,-2.68231 -3.615208,-4.80712 l 2.116667,-26.27424 h -2.816906 c -23.56197,0 -44.241242,30.62808 -49.742087,46.36243 -0.84507,2.41695 -3.490929,3.91119 -6.234253,3.52038 -2.743323,-0.39081 -4.766084,-2.55031 -4.766084,-5.08774 -5.662451,-54.60623 32.733322,-85.358926 63.55933,-87.906244 L 91.502462,41.934673 c -0.166885,-2.075873 1.372391,-3.960106 3.477748,-4.75707 z m 7.78985,17.187869 2.11667,18.992446 c 0.31497,2.826199 -2.52225,5.149014 -5.6338,5.149014 h -2.816906 c -38.842782,0 -59.73196,45.910858 -58.720039,66.169598 7.942283,-19.6601 34.394296,-43.59954 53.086238,-43.59954 h 8.450707 c 3.11155,0 5.94763,2.32259 5.6338,5.14902 l -2.11667,18.00492 37.30704,-36.827079 z"
       id="path6"
       inkscape:connector-curvature="0"
       style="stroke-width:5.38595581"
       sodipodi:nodetypes="ccscccscscsccsccssscsssccc" />
  </g>
</svg>
