<?xml version="1.0" encoding="UTF-8" standalone="no"?>
<svg
   xmlns:dc="http://purl.org/dc/elements/1.1/"
   xmlns:cc="http://creativecommons.org/ns#"
   xmlns:rdf="http://www.w3.org/1999/02/22-rdf-syntax-ns#"
   xmlns:svg="http://www.w3.org/2000/svg"
   xmlns="http://www.w3.org/2000/svg"
   xmlns:sodipodi="http://sodipodi.sourceforge.net/DTD/sodipodi-0.dtd"
   xmlns:inkscape="http://www.inkscape.org/namespaces/inkscape"
   width="793.700787402"
   height="1122.51968504"
   version="1.1"
   id="svg63"
   sodipodi:docname="curate.svg"
   inkscape:version="0.92.4 (5da689c313, 2019-01-14)">
  <metadata
     id="metadata67">
    <rdf:RDF>
      <cc:Work
         rdf:about="">
        <dc:format>image/svg+xml</dc:format>
        <dc:type
           rdf:resource="http://purl.org/dc/dcmitype/StillImage" />
        <dc:title />
      </cc:Work>
    </rdf:RDF>
  </metadata>
  <sodipodi:namedview
     pagecolor="#ffffff"
     bordercolor="#666666"
     borderopacity="1"
     objecttolerance="10"
     gridtolerance="10"
     guidetolerance="10"
     inkscape:pageopacity="0"
     inkscape:pageshadow="2"
     inkscape:window-width="1920"
     inkscape:window-height="1009"
     id="namedview65"
     showgrid="false"
     inkscape:snap-page="true"
     inkscape:snap-grids="false"
     inkscape:zoom="4"
     inkscape:cx="81.559856"
     inkscape:cy="1082.2"
     inkscape:window-x="-8"
     inkscape:window-y="1073"
     inkscape:window-maximized="1"
     inkscape:current-layer="g61"
     inkscape:snap-others="false"
     inkscape:showpageshadow="2"
     inkscape:pagecheckerboard="0"
     inkscape:deskcolor="#d1d1d1" />
  <defs
     id="defs51">
    <marker
       id="DistanceX"
       orient="auto"
       refX="0.0"
       refY="0.0"
       style="overflow:visible">
      <path
         d="M 3,-3 L -3,3 M 0,-5 L  0,5"
         style="stroke:#000000; stroke-width:0.5"
         id="path39" />
    </marker>
    <pattern
       height="8"
       id="Hatch"
       patternUnits="userSpaceOnUse"
       width="8"
       x="0"
       y="0">
      <path
         d="M8 4 l-4,4"
         linecap="square"
         stroke="#000000"
         stroke-width="0.25"
         id="path42" />
      <path
         d="M6 2 l-4,4"
         linecap="square"
         stroke="#000000"
         stroke-width="0.25"
         id="path44" />
      <path
         d="M4 0 l-4,4"
         linecap="square"
         stroke="#000000"
         stroke-width="0.25"
         id="path46" />
    </pattern>
    <symbol
       id="*MODEL_SPACE" />
    <symbol
       id="*PAPER_SPACE" />
  </defs>
  <g
     inkscape:groupmode="layer"
     inkscape:label="0"
     id="g61">
    <path
       id="path844"
       d="m 5.656026,18.442798 c 0,0 -1.145106,-2.1386 -1.145106,-2.1378 -0.02383,-0.044 -0.0377,-0.094 -0.0377,-0.1453 0,-0.204 0.207388,-0.3691 0.461408,-0.3691 h 2.290219 c 0.254991,0 0.461408,0.1659 0.461408,0.3691 0,0.052 -0.01292,0.1008 -0.03671,0.1453 0,0 -1.145106,2.1378 -1.146116,2.1378 -0.07044,0.1318 -0.233184,0.2239 -0.423689,0.2239 -0.18955,0 -0.353267,-0.092 -0.423726,-0.2239 z M 4.189511,2.1523003 c -0.254543,0 -0.461201,0.2067 -0.461201,0.4612 0,0.1101 0.03875,0.2115 0.10318,0.2908 -1.54e-4,-3e-4 7.591829,9.3479977 7.591829,9.3479977 0.214709,0.2644 0.343459,0.6014 0.343459,0.9682 0,0.8485 -0.68834,1.5384 -1.536859,1.5384 -5.23e-4,0 -8.692555,0 -8.692555,0 -0.8485,0 -1.537364,-0.6888 -1.537364,-1.5374 0,-0.309 0.0923,-0.5984 0.249469,-0.8395 -9.55e-4,0 2.724939,-4.1890987 2.724939,-4.1890987 0.08233,-0.126299 0.224835,-0.209799 0.386663,-0.209799 0.144511,0 0.273168,0.067 0.357741,0.170899 4.31e-4,-2e-4 0.814451,1.0028004 0.814451,1.0028004 0.06439,0.079 0.10303,0.1803997 0.10303,0.2904997 0,0.093 -0.02755,0.1798 -0.07467,0.2522 1.15e-4,-8e-4 -1.424526,2.1939986 -1.424526,2.1939986 -0.04697,0.072 -0.07456,0.1587 -0.07456,0.2514 0,0.2545 0.206378,0.4617 0.460959,0.4617 2.8e-4,-5e-4 4.446049,0 4.446049,0 0.254579,0 0.46124,-0.2067 0.46124,-0.4612 0,-0.1101 -0.03879,-0.2115 -0.10318,-0.2908 1.53e-4,3e-4 -7.591868,-9.3479977 -7.591868,-9.3479977 -0.214709,-0.2644 -0.343421,-0.6014 -0.343421,-0.9682 C 0.392316,0.68990038 1.080656,0 1.929176,0 c 5.23e-4,0.001 8.692497,0 8.692497,0 0.848519,0 1.537421,0.68890038 1.537421,1.5374003 0,0.309 -0.0923,0.5984 -0.249468,0.8395 9.54e-4,0 -2.721336,4.1783 -2.721336,4.1783 -0.08229,0.1263 -0.224797,0.2099 -0.386624,0.2099 -0.144549,0 -0.273169,-0.067 -0.357742,-0.171 -4.67e-4,2e-4 -0.814451,-1.0028 -0.814451,-1.0028 -0.06443,-0.079 -0.10303,-0.1804 -0.10303,-0.2904 0,-0.093 0.02752,-0.1799 0.07467,-0.2522 -1.15e-4,8e-4 1.420837,-2.1833 1.420837,-2.1833 0.04708,-0.072 0.07456,-0.1587 0.07456,-0.2514 0,-0.2545 -0.206378,-0.4617 -0.460921,-0.4617 -2.8e-4,5e-4 -4.446087,0 -4.446087,0 z"
       inkscape:connector-curvature="0"
       style="fill:currentColor;stroke-width:0.01916838" />
  </g>
</svg>
